<mxfile host="65bd71144e">
    <diagram name="Copy of architecture_v0" id="tJNM4rOETJOF8i7caVq6">
        <mxGraphModel dx="2008" dy="1036" grid="1" gridSize="10" guides="1" tooltips="1" connect="1" arrows="1" fold="1" page="1" pageScale="1" pageWidth="827" pageHeight="1169" math="0" shadow="0">
            <root>
                <mxCell id="Dv7mG6I_VhBKM4UHNYjN-0"/>
                <mxCell id="Dv7mG6I_VhBKM4UHNYjN-1" parent="Dv7mG6I_VhBKM4UHNYjN-0"/>
                <mxCell id="Dv7mG6I_VhBKM4UHNYjN-2" value="" style="rounded=1;whiteSpace=wrap;html=1;" vertex="1" parent="Dv7mG6I_VhBKM4UHNYjN-1">
                    <mxGeometry x="280" y="200" width="580" height="420" as="geometry"/>
                </mxCell>
                <mxCell id="Dv7mG6I_VhBKM4UHNYjN-4" value="USER" style="rounded=1;whiteSpace=wrap;html=1;" vertex="1" parent="Dv7mG6I_VhBKM4UHNYjN-1">
                    <mxGeometry x="-20" y="400" width="120" height="60" as="geometry"/>
                </mxCell>
                <mxCell id="Dv7mG6I_VhBKM4UHNYjN-5" value="" style="rounded=1;whiteSpace=wrap;html=1;" vertex="1" parent="Dv7mG6I_VhBKM4UHNYjN-1">
                    <mxGeometry x="340" y="230" width="340" height="370" as="geometry"/>
                </mxCell>
                <mxCell id="Dv7mG6I_VhBKM4UHNYjN-6" value="" style="endArrow=classic;html=1;exitX=1;exitY=0.25;exitDx=0;exitDy=0;entryX=0.002;entryY=0.469;entryDx=0;entryDy=0;entryPerimeter=0;" edge="1" parent="Dv7mG6I_VhBKM4UHNYjN-1" source="Dv7mG6I_VhBKM4UHNYjN-4" target="4gl4zNjlHuUFSt6S9p6h-2">
                    <mxGeometry width="50" height="50" relative="1" as="geometry">
                        <mxPoint x="380" y="440" as="sourcePoint"/>
                        <mxPoint x="430" y="390" as="targetPoint"/>
                    </mxGeometry>
                </mxCell>
                <mxCell id="Dv7mG6I_VhBKM4UHNYjN-7" value="" style="endArrow=classic;html=1;exitX=0;exitY=0.589;exitDx=0;exitDy=0;entryX=1;entryY=0.75;entryDx=0;entryDy=0;exitPerimeter=0;" edge="1" parent="Dv7mG6I_VhBKM4UHNYjN-1" source="4gl4zNjlHuUFSt6S9p6h-2" target="Dv7mG6I_VhBKM4UHNYjN-4">
                    <mxGeometry width="50" height="50" relative="1" as="geometry">
                        <mxPoint x="110" y="425" as="sourcePoint"/>
                        <mxPoint x="350" y="425" as="targetPoint"/>
                    </mxGeometry>
                </mxCell>
                <mxCell id="Dv7mG6I_VhBKM4UHNYjN-8" value="POST, PUT, GET, DELETE" style="text;html=1;strokeColor=none;fillColor=none;align=center;verticalAlign=middle;whiteSpace=wrap;rounded=0;" vertex="1" parent="Dv7mG6I_VhBKM4UHNYjN-1">
                    <mxGeometry x="110" y="380" width="170" height="30" as="geometry"/>
                </mxCell>
                <mxCell id="Dv7mG6I_VhBKM4UHNYjN-10" value="object meta service" style="rounded=1;whiteSpace=wrap;html=1;" vertex="1" parent="Dv7mG6I_VhBKM4UHNYjN-1">
                    <mxGeometry x="520" y="300" width="120" height="60" as="geometry"/>
                </mxCell>
                <mxCell id="Dv7mG6I_VhBKM4UHNYjN-11" value="storage service" style="rounded=1;whiteSpace=wrap;html=1;" vertex="1" parent="Dv7mG6I_VhBKM4UHNYjN-1">
                    <mxGeometry x="520" y="490" width="120" height="60" as="geometry"/>
                </mxCell>
                <mxCell id="Dv7mG6I_VhBKM4UHNYjN-12" value="nosql" style="shape=cylinder3;whiteSpace=wrap;html=1;boundedLbl=1;backgroundOutline=1;size=15;" vertex="1" parent="Dv7mG6I_VhBKM4UHNYjN-1">
                    <mxGeometry x="730" y="290" width="60" height="80" as="geometry"/>
                </mxCell>
                <mxCell id="Dv7mG6I_VhBKM4UHNYjN-19" value="" style="endArrow=classic;startArrow=classic;html=1;entryX=0;entryY=0.5;entryDx=0;entryDy=0;entryPerimeter=0;" edge="1" parent="Dv7mG6I_VhBKM4UHNYjN-1" source="Dv7mG6I_VhBKM4UHNYjN-10" target="Dv7mG6I_VhBKM4UHNYjN-12">
                    <mxGeometry width="50" height="50" relative="1" as="geometry">
                        <mxPoint x="510" y="540" as="sourcePoint"/>
                        <mxPoint x="560" y="490" as="targetPoint"/>
                    </mxGeometry>
                </mxCell>
                <mxCell id="Dv7mG6I_VhBKM4UHNYjN-20" value="levelDB" style="shape=cylinder3;whiteSpace=wrap;html=1;boundedLbl=1;backgroundOutline=1;size=15;" vertex="1" parent="Dv7mG6I_VhBKM4UHNYjN-1">
                    <mxGeometry x="730" y="480" width="60" height="80" as="geometry"/>
                </mxCell>
                <mxCell id="Dv7mG6I_VhBKM4UHNYjN-21" value="" style="endArrow=classic;startArrow=classic;html=1;exitX=1;exitY=0.5;exitDx=0;exitDy=0;" edge="1" parent="Dv7mG6I_VhBKM4UHNYjN-1" source="Dv7mG6I_VhBKM4UHNYjN-11" target="Dv7mG6I_VhBKM4UHNYjN-20">
                    <mxGeometry width="50" height="50" relative="1" as="geometry">
                        <mxPoint x="690" y="340" as="sourcePoint"/>
                        <mxPoint x="740" y="340" as="targetPoint"/>
                    </mxGeometry>
                </mxCell>
                <mxCell id="4gl4zNjlHuUFSt6S9p6h-0" value="API server" style="text;html=1;strokeColor=none;fillColor=none;align=center;verticalAlign=middle;whiteSpace=wrap;rounded=0;" vertex="1" parent="Dv7mG6I_VhBKM4UHNYjN-1">
                    <mxGeometry x="350" y="230" width="100" height="30" as="geometry"/>
                </mxCell>
                <mxCell id="4gl4zNjlHuUFSt6S9p6h-2" value="handler" style="rounded=1;whiteSpace=wrap;html=1;" vertex="1" parent="Dv7mG6I_VhBKM4UHNYjN-1">
                    <mxGeometry x="370" y="300" width="120" height="250" as="geometry"/>
                </mxCell>
            </root>
        </mxGraphModel>
    </diagram>
    <diagram id="-xh7lsWtHkoIq44ITKwm" name="architecture_v1">
        <mxGraphModel dx="2008" dy="1036" grid="1" gridSize="10" guides="1" tooltips="1" connect="1" arrows="1" fold="1" page="1" pageScale="1" pageWidth="827" pageHeight="1169" math="0" shadow="0">
            <root>
                <mxCell id="0"/>
                <mxCell id="1" parent="0"/>
                <mxCell id="4BQ2evdpj7uEI14HnPks-1" value="" style="rounded=1;whiteSpace=wrap;html=1;" parent="1" vertex="1">
                    <mxGeometry x="280" y="200" width="580" height="420" as="geometry"/>
                </mxCell>
                <mxCell id="4BQ2evdpj7uEI14HnPks-2" value="" style="rounded=1;whiteSpace=wrap;html=1;" parent="1" vertex="1">
                    <mxGeometry x="520" y="420" width="290" height="170" as="geometry"/>
                </mxCell>
                <mxCell id="4BQ2evdpj7uEI14HnPks-4" value="USER" style="rounded=1;whiteSpace=wrap;html=1;" parent="1" vertex="1">
                    <mxGeometry x="-20" y="400" width="120" height="60" as="geometry"/>
                </mxCell>
                <mxCell id="4BQ2evdpj7uEI14HnPks-5" value="API" style="rounded=1;whiteSpace=wrap;html=1;" parent="1" vertex="1">
                    <mxGeometry x="340" y="400" width="120" height="60" as="geometry"/>
                </mxCell>
                <mxCell id="4BQ2evdpj7uEI14HnPks-6" value="" style="endArrow=classic;html=1;exitX=1;exitY=0.25;exitDx=0;exitDy=0;entryX=0;entryY=0.25;entryDx=0;entryDy=0;" parent="1" source="4BQ2evdpj7uEI14HnPks-4" target="4BQ2evdpj7uEI14HnPks-5" edge="1">
                    <mxGeometry width="50" height="50" relative="1" as="geometry">
                        <mxPoint x="380" y="440" as="sourcePoint"/>
                        <mxPoint x="430" y="390" as="targetPoint"/>
                    </mxGeometry>
                </mxCell>
                <mxCell id="4BQ2evdpj7uEI14HnPks-7" value="" style="endArrow=classic;html=1;exitX=0;exitY=0.75;exitDx=0;exitDy=0;entryX=1;entryY=0.75;entryDx=0;entryDy=0;" parent="1" source="4BQ2evdpj7uEI14HnPks-5" target="4BQ2evdpj7uEI14HnPks-4" edge="1">
                    <mxGeometry width="50" height="50" relative="1" as="geometry">
                        <mxPoint x="110" y="425" as="sourcePoint"/>
                        <mxPoint x="350" y="425" as="targetPoint"/>
                    </mxGeometry>
                </mxCell>
                <mxCell id="4BQ2evdpj7uEI14HnPks-9" value="" style="rounded=1;whiteSpace=wrap;html=1;" parent="1" vertex="1">
                    <mxGeometry x="520" y="220" width="290" height="180" as="geometry"/>
                </mxCell>
                <mxCell id="4BQ2evdpj7uEI14HnPks-10" value="object meta" style="rounded=1;whiteSpace=wrap;html=1;" parent="1" vertex="1">
                    <mxGeometry x="560" y="300" width="120" height="60" as="geometry"/>
                </mxCell>
                <mxCell id="4BQ2evdpj7uEI14HnPks-11" value="storage node" style="rounded=1;whiteSpace=wrap;html=1;" parent="1" vertex="1">
                    <mxGeometry x="560" y="490" width="120" height="60" as="geometry"/>
                </mxCell>
                <mxCell id="4BQ2evdpj7uEI14HnPks-14" value="nosql" style="shape=cylinder3;whiteSpace=wrap;html=1;boundedLbl=1;backgroundOutline=1;size=15;" parent="1" vertex="1">
                    <mxGeometry x="730" y="290" width="60" height="80" as="geometry"/>
                </mxCell>
                <mxCell id="4BQ2evdpj7uEI14HnPks-25" value="" style="endArrow=classic;html=1;exitX=0.994;exitY=0.09;exitDx=0;exitDy=0;entryX=0;entryY=0.25;entryDx=0;entryDy=0;exitPerimeter=0;" parent="1" source="4BQ2evdpj7uEI14HnPks-5" target="4BQ2evdpj7uEI14HnPks-10" edge="1">
                    <mxGeometry width="50" height="50" relative="1" as="geometry">
                        <mxPoint x="690" y="540" as="sourcePoint"/>
                        <mxPoint x="740" y="490" as="targetPoint"/>
                    </mxGeometry>
                </mxCell>
                <mxCell id="4BQ2evdpj7uEI14HnPks-26" value="" style="endArrow=classic;html=1;exitX=0;exitY=0.75;exitDx=0;exitDy=0;entryX=1;entryY=0.41;entryDx=0;entryDy=0;entryPerimeter=0;" parent="1" source="4BQ2evdpj7uEI14HnPks-10" target="4BQ2evdpj7uEI14HnPks-5" edge="1">
                    <mxGeometry width="50" height="50" relative="1" as="geometry">
                        <mxPoint x="470" y="425" as="sourcePoint"/>
                        <mxPoint x="570" y="275" as="targetPoint"/>
                    </mxGeometry>
                </mxCell>
                <mxCell id="4BQ2evdpj7uEI14HnPks-27" value="" style="endArrow=classic;html=1;exitX=1;exitY=1;exitDx=0;exitDy=0;entryX=0;entryY=0.75;entryDx=0;entryDy=0;" parent="1" source="4BQ2evdpj7uEI14HnPks-5" target="4BQ2evdpj7uEI14HnPks-11" edge="1">
                    <mxGeometry width="50" height="50" relative="1" as="geometry">
                        <mxPoint x="469.27999999999975" y="415.4000000000001" as="sourcePoint"/>
                        <mxPoint x="570" y="275" as="targetPoint"/>
                    </mxGeometry>
                </mxCell>
                <mxCell id="4BQ2evdpj7uEI14HnPks-28" value="" style="endArrow=classic;html=1;exitX=0.01;exitY=0.369;exitDx=0;exitDy=0;entryX=1;entryY=0.75;entryDx=0;entryDy=0;exitPerimeter=0;" parent="1" source="4BQ2evdpj7uEI14HnPks-11" target="4BQ2evdpj7uEI14HnPks-5" edge="1">
                    <mxGeometry width="50" height="50" relative="1" as="geometry">
                        <mxPoint x="470" y="470" as="sourcePoint"/>
                        <mxPoint x="570" y="655" as="targetPoint"/>
                    </mxGeometry>
                </mxCell>
                <mxCell id="4BQ2evdpj7uEI14HnPks-29" value="storage service" style="text;html=1;strokeColor=none;fillColor=none;align=center;verticalAlign=middle;whiteSpace=wrap;rounded=0;" parent="1" vertex="1">
                    <mxGeometry x="540" y="430" width="100" height="30" as="geometry"/>
                </mxCell>
                <mxCell id="4BQ2evdpj7uEI14HnPks-30" value="meta service" style="text;html=1;strokeColor=none;fillColor=none;align=center;verticalAlign=middle;whiteSpace=wrap;rounded=0;" parent="1" vertex="1">
                    <mxGeometry x="530" y="230" width="110" height="30" as="geometry"/>
                </mxCell>
                <mxCell id="4BQ2evdpj7uEI14HnPks-31" value="" style="endArrow=classic;startArrow=classic;html=1;entryX=0;entryY=0.5;entryDx=0;entryDy=0;entryPerimeter=0;" parent="1" source="4BQ2evdpj7uEI14HnPks-10" target="4BQ2evdpj7uEI14HnPks-14" edge="1">
                    <mxGeometry width="50" height="50" relative="1" as="geometry">
                        <mxPoint x="510" y="540" as="sourcePoint"/>
                        <mxPoint x="560" y="490" as="targetPoint"/>
                    </mxGeometry>
                </mxCell>
                <mxCell id="iA15LZfpJ7BzNo4cb26q-1" value="levelDB" style="shape=cylinder3;whiteSpace=wrap;html=1;boundedLbl=1;backgroundOutline=1;size=15;" parent="1" vertex="1">
                    <mxGeometry x="730" y="480" width="60" height="80" as="geometry"/>
                </mxCell>
                <mxCell id="iA15LZfpJ7BzNo4cb26q-2" value="" style="endArrow=classic;startArrow=classic;html=1;exitX=1;exitY=0.5;exitDx=0;exitDy=0;" parent="1" source="4BQ2evdpj7uEI14HnPks-11" target="iA15LZfpJ7BzNo4cb26q-1" edge="1">
                    <mxGeometry width="50" height="50" relative="1" as="geometry">
                        <mxPoint x="690" y="340" as="sourcePoint"/>
                        <mxPoint x="740" y="340" as="targetPoint"/>
                    </mxGeometry>
                </mxCell>
                <mxCell id="2" value="" style="rounded=1;whiteSpace=wrap;html=1;" parent="1" vertex="1">
                    <mxGeometry x="220" y="840" width="560" height="480" as="geometry"/>
                </mxCell>
                <mxCell id="3" value="" style="rounded=1;whiteSpace=wrap;html=1;" parent="1" vertex="1">
                    <mxGeometry x="260" y="900" width="95" height="390" as="geometry"/>
                </mxCell>
                <mxCell id="4" value="" style="rounded=1;whiteSpace=wrap;html=1;" parent="1" vertex="1">
                    <mxGeometry x="635" y="900" width="105" height="390" as="geometry"/>
                </mxCell>
                <mxCell id="5" value="" style="rounded=1;whiteSpace=wrap;html=1;" parent="1" vertex="1">
                    <mxGeometry x="410" y="1000" width="160" height="190" as="geometry"/>
                </mxCell>
                <mxCell id="6" value="API" style="text;html=1;strokeColor=none;fillColor=none;align=center;verticalAlign=middle;whiteSpace=wrap;rounded=0;" parent="1" vertex="1">
                    <mxGeometry x="220" y="840" width="100" height="30" as="geometry"/>
                </mxCell>
                <mxCell id="7" value="controller" style="text;html=1;strokeColor=none;fillColor=none;align=center;verticalAlign=middle;whiteSpace=wrap;rounded=0;" parent="1" vertex="1">
                    <mxGeometry x="255" y="910" width="100" height="30" as="geometry"/>
                </mxCell>
                <mxCell id="8" value="controller" style="text;html=1;strokeColor=none;fillColor=none;align=center;verticalAlign=middle;whiteSpace=wrap;rounded=0;" parent="1" vertex="1">
                    <mxGeometry x="630" y="910" width="100" height="30" as="geometry"/>
                </mxCell>
                <mxCell id="9" value="service" style="text;html=1;strokeColor=none;fillColor=none;align=center;verticalAlign=middle;whiteSpace=wrap;rounded=0;" parent="1" vertex="1">
                    <mxGeometry x="440" y="1000" width="100" height="30" as="geometry"/>
                </mxCell>
                <mxCell id="11" value="" style="shape=flexArrow;endArrow=classic;startArrow=classic;html=1;" parent="1" source="3" target="5" edge="1">
                    <mxGeometry width="100" height="100" relative="1" as="geometry">
                        <mxPoint x="560" y="950" as="sourcePoint"/>
                        <mxPoint x="660" y="850" as="targetPoint"/>
                    </mxGeometry>
                </mxCell>
                <mxCell id="13" value="object upload &lt;br&gt;rest controller" style="rounded=1;whiteSpace=wrap;html=1;" parent="1" vertex="1">
                    <mxGeometry x="273.75" y="960" width="62.5" height="90" as="geometry"/>
                </mxCell>
                <mxCell id="15" value="object&lt;br&gt;download&lt;br&gt;rest controller" style="rounded=1;whiteSpace=wrap;html=1;" parent="1" vertex="1">
                    <mxGeometry x="273.75" y="1070" width="62.5" height="90" as="geometry"/>
                </mxCell>
                <mxCell id="16" value="object&lt;br&gt;list&lt;br&gt;rest controller" style="rounded=1;whiteSpace=wrap;html=1;" parent="1" vertex="1">
                    <mxGeometry x="273.75" y="1180" width="62.5" height="90" as="geometry"/>
                </mxCell>
                <mxCell id="17" value="block upload &lt;br&gt;rpc controller" style="rounded=1;whiteSpace=wrap;html=1;" parent="1" vertex="1">
                    <mxGeometry x="650" y="950" width="62.5" height="90" as="geometry"/>
                </mxCell>
                <mxCell id="18" value="" style="shape=flexArrow;endArrow=classic;startArrow=classic;html=1;exitX=1.021;exitY=0.129;exitDx=0;exitDy=0;exitPerimeter=0;" parent="1" source="3" edge="1">
                    <mxGeometry width="100" height="100" relative="1" as="geometry">
                        <mxPoint x="380" y="950" as="sourcePoint"/>
                        <mxPoint x="630" y="950" as="targetPoint"/>
                    </mxGeometry>
                </mxCell>
                <mxCell id="19" value="block&lt;br&gt;download&lt;br&gt;rpc controller" style="rounded=1;whiteSpace=wrap;html=1;" parent="1" vertex="1">
                    <mxGeometry x="650" y="1070" width="62.5" height="90" as="geometry"/>
                </mxCell>
                <mxCell id="20" value="object meta&lt;br&gt;rpc&lt;br&gt;controller" style="rounded=1;whiteSpace=wrap;html=1;" parent="1" vertex="1">
                    <mxGeometry x="650" y="1180" width="62.5" height="90" as="geometry"/>
                </mxCell>
                <mxCell id="KyjR2b92OtFHxr7rNQe5-21" value="POST, PUT, GET, DELETE" style="text;html=1;strokeColor=none;fillColor=none;align=center;verticalAlign=middle;whiteSpace=wrap;rounded=0;" vertex="1" parent="1">
                    <mxGeometry x="120" y="390" width="170" height="30" as="geometry"/>
                </mxCell>
            </root>
        </mxGraphModel>
    </diagram>
    <diagram id="XrwoL8R-I7j03MeKUOcI" name="architecture_v2">
        <mxGraphModel dx="2008" dy="1036" grid="1" gridSize="10" guides="1" tooltips="1" connect="1" arrows="1" fold="1" page="1" pageScale="1" pageWidth="827" pageHeight="1169" math="0" shadow="0">
            <root>
                <mxCell id="0"/>
                <mxCell id="1" parent="0"/>
                <mxCell id="3" value="" style="rounded=1;whiteSpace=wrap;html=1;" parent="1" vertex="1">
                    <mxGeometry x="280" y="120" width="700" height="720" as="geometry"/>
                </mxCell>
                <mxCell id="10" value="" style="rounded=1;whiteSpace=wrap;html=1;" parent="1" vertex="1">
                    <mxGeometry x="520" y="420" width="420" height="400" as="geometry"/>
                </mxCell>
                <mxCell id="37" value="" style="rounded=1;whiteSpace=wrap;html=1;" parent="1" vertex="1">
                    <mxGeometry x="660" y="430" width="270" height="380" as="geometry"/>
                </mxCell>
                <mxCell id="2" value="USER" style="rounded=1;whiteSpace=wrap;html=1;" parent="1" vertex="1">
                    <mxGeometry x="-20" y="400" width="120" height="60" as="geometry"/>
                </mxCell>
                <mxCell id="4" value="API" style="rounded=1;whiteSpace=wrap;html=1;" parent="1" vertex="1">
                    <mxGeometry x="340" y="400" width="120" height="60" as="geometry"/>
                </mxCell>
                <mxCell id="6" value="" style="endArrow=classic;html=1;exitX=1;exitY=0.25;exitDx=0;exitDy=0;entryX=0;entryY=0.25;entryDx=0;entryDy=0;" parent="1" source="2" target="4" edge="1">
                    <mxGeometry width="50" height="50" relative="1" as="geometry">
                        <mxPoint x="380" y="440" as="sourcePoint"/>
                        <mxPoint x="430" y="390" as="targetPoint"/>
                    </mxGeometry>
                </mxCell>
                <mxCell id="7" value="" style="endArrow=classic;html=1;exitX=0;exitY=0.75;exitDx=0;exitDy=0;entryX=1;entryY=0.75;entryDx=0;entryDy=0;" parent="1" source="4" target="2" edge="1">
                    <mxGeometry width="50" height="50" relative="1" as="geometry">
                        <mxPoint x="110" y="425" as="sourcePoint"/>
                        <mxPoint x="350" y="425" as="targetPoint"/>
                    </mxGeometry>
                </mxCell>
                <mxCell id="9" value="" style="rounded=1;whiteSpace=wrap;html=1;" parent="1" vertex="1">
                    <mxGeometry x="520" y="150" width="410" height="250" as="geometry"/>
                </mxCell>
                <mxCell id="12" value="LB" style="rounded=1;whiteSpace=wrap;html=1;" parent="1" vertex="1">
                    <mxGeometry x="540" y="250" width="90" height="60" as="geometry"/>
                </mxCell>
                <mxCell id="13" value="storage node cluster" style="rounded=1;whiteSpace=wrap;html=1;" parent="1" vertex="1">
                    <mxGeometry x="560" y="600" width="120" height="60" as="geometry"/>
                </mxCell>
                <mxCell id="14" value="" style="rounded=1;whiteSpace=wrap;html=1;" parent="1" vertex="1">
                    <mxGeometry x="740" y="440" width="160" height="110" as="geometry"/>
                </mxCell>
                <mxCell id="15" value="" style="rounded=1;whiteSpace=wrap;html=1;" parent="1" vertex="1">
                    <mxGeometry x="740" y="560" width="160" height="100" as="geometry"/>
                </mxCell>
                <mxCell id="16" value="nosql" style="shape=cylinder3;whiteSpace=wrap;html=1;boundedLbl=1;backgroundOutline=1;size=15;" parent="1" vertex="1">
                    <mxGeometry x="837.5" y="205" width="60" height="80" as="geometry"/>
                </mxCell>
                <mxCell id="17" value="storage node" style="rounded=1;whiteSpace=wrap;html=1;" parent="1" vertex="1">
                    <mxGeometry x="760" y="470" width="120" height="30" as="geometry"/>
                </mxCell>
                <mxCell id="19" value="storage node" style="rounded=1;whiteSpace=wrap;html=1;" parent="1" vertex="1">
                    <mxGeometry x="760" y="510" width="120" height="30" as="geometry"/>
                </mxCell>
                <mxCell id="20" value="storage node" style="rounded=1;whiteSpace=wrap;html=1;" parent="1" vertex="1">
                    <mxGeometry x="760" y="595" width="120" height="50" as="geometry"/>
                </mxCell>
                <mxCell id="21" value="" style="endArrow=none;dashed=1;html=1;dashPattern=1 3;strokeWidth=2;exitX=0.731;exitY=0.714;exitDx=0;exitDy=0;exitPerimeter=0;" parent="1" source="10" edge="1">
                    <mxGeometry width="50" height="50" relative="1" as="geometry">
                        <mxPoint x="830" y="680" as="sourcePoint"/>
                        <mxPoint x="827" y="660" as="targetPoint"/>
                    </mxGeometry>
                </mxCell>
                <mxCell id="22" value="" style="rounded=1;whiteSpace=wrap;html=1;" parent="1" vertex="1">
                    <mxGeometry x="740" y="690" width="160" height="110" as="geometry"/>
                </mxCell>
                <mxCell id="24" value="storage node" style="rounded=1;whiteSpace=wrap;html=1;" parent="1" vertex="1">
                    <mxGeometry x="760" y="720" width="120" height="30" as="geometry"/>
                </mxCell>
                <mxCell id="25" value="storage node" style="rounded=1;whiteSpace=wrap;html=1;" parent="1" vertex="1">
                    <mxGeometry x="760" y="760" width="120" height="30" as="geometry"/>
                </mxCell>
                <mxCell id="26" value="xxx.xxx.xxx.1" style="text;html=1;strokeColor=none;fillColor=none;align=center;verticalAlign=middle;whiteSpace=wrap;rounded=0;" parent="1" vertex="1">
                    <mxGeometry x="760" y="440" width="60" height="20" as="geometry"/>
                </mxCell>
                <mxCell id="28" value="xxx.xxx.xxx.2" style="text;html=1;strokeColor=none;fillColor=none;align=center;verticalAlign=middle;whiteSpace=wrap;rounded=0;" parent="1" vertex="1">
                    <mxGeometry x="760" y="560" width="60" height="20" as="geometry"/>
                </mxCell>
                <mxCell id="30" value="xxx.xxx.xxx.3" style="text;html=1;strokeColor=none;fillColor=none;align=center;verticalAlign=middle;whiteSpace=wrap;rounded=0;" parent="1" vertex="1">
                    <mxGeometry x="760" y="690" width="60" height="20" as="geometry"/>
                </mxCell>
                <mxCell id="31" value="" style="endArrow=classic;html=1;exitX=0.994;exitY=0.09;exitDx=0;exitDy=0;entryX=0;entryY=0.25;entryDx=0;entryDy=0;exitPerimeter=0;" parent="1" source="4" target="12" edge="1">
                    <mxGeometry width="50" height="50" relative="1" as="geometry">
                        <mxPoint x="690" y="540" as="sourcePoint"/>
                        <mxPoint x="740" y="490" as="targetPoint"/>
                    </mxGeometry>
                </mxCell>
                <mxCell id="32" value="" style="endArrow=classic;html=1;exitX=0;exitY=0.75;exitDx=0;exitDy=0;entryX=1;entryY=0.41;entryDx=0;entryDy=0;entryPerimeter=0;" parent="1" source="12" target="4" edge="1">
                    <mxGeometry width="50" height="50" relative="1" as="geometry">
                        <mxPoint x="470" y="425" as="sourcePoint"/>
                        <mxPoint x="570" y="275" as="targetPoint"/>
                    </mxGeometry>
                </mxCell>
                <mxCell id="33" value="" style="endArrow=classic;html=1;exitX=1;exitY=1;exitDx=0;exitDy=0;entryX=0;entryY=0.75;entryDx=0;entryDy=0;" parent="1" source="4" target="13" edge="1">
                    <mxGeometry width="50" height="50" relative="1" as="geometry">
                        <mxPoint x="469.27999999999975" y="415.4000000000001" as="sourcePoint"/>
                        <mxPoint x="570" y="275" as="targetPoint"/>
                    </mxGeometry>
                </mxCell>
                <mxCell id="34" value="" style="endArrow=classic;html=1;exitX=0.01;exitY=0.369;exitDx=0;exitDy=0;entryX=1;entryY=0.75;entryDx=0;entryDy=0;exitPerimeter=0;" parent="1" source="13" target="4" edge="1">
                    <mxGeometry width="50" height="50" relative="1" as="geometry">
                        <mxPoint x="470" y="470" as="sourcePoint"/>
                        <mxPoint x="570" y="655" as="targetPoint"/>
                    </mxGeometry>
                </mxCell>
                <mxCell id="35" value="storage service" style="text;html=1;strokeColor=none;fillColor=none;align=center;verticalAlign=middle;whiteSpace=wrap;rounded=0;" parent="1" vertex="1">
                    <mxGeometry x="540" y="440" width="100" height="30" as="geometry"/>
                </mxCell>
                <mxCell id="36" value="meta service" style="text;html=1;strokeColor=none;fillColor=none;align=center;verticalAlign=middle;whiteSpace=wrap;rounded=0;" parent="1" vertex="1">
                    <mxGeometry x="540" y="160" width="110" height="30" as="geometry"/>
                </mxCell>
                <mxCell id="22j1NjlpuGM0zyQFbdJL-37" value="" style="endArrow=classic;startArrow=classic;html=1;exitX=1;exitY=0.5;exitDx=0;exitDy=0;" parent="1" source="qHkTOjJ6QAgFXQLdBOn8-37" target="16" edge="1">
                    <mxGeometry width="50" height="50" relative="1" as="geometry">
                        <mxPoint x="617.5" y="515" as="sourcePoint"/>
                        <mxPoint x="667.5" y="465" as="targetPoint"/>
                    </mxGeometry>
                </mxCell>
                <mxCell id="qHkTOjJ6QAgFXQLdBOn8-37" value="object meta node" style="rounded=1;whiteSpace=wrap;html=1;" parent="1" vertex="1">
                    <mxGeometry x="677.5" y="215" width="120" height="60" as="geometry"/>
                </mxCell>
                <mxCell id="qHkTOjJ6QAgFXQLdBOn8-39" value="" style="endArrow=classic;startArrow=classic;html=1;entryX=0;entryY=0.5;entryDx=0;entryDy=0;" parent="1" source="12" target="qHkTOjJ6QAgFXQLdBOn8-42" edge="1">
                    <mxGeometry width="50" height="50" relative="1" as="geometry">
                        <mxPoint x="810" y="290" as="sourcePoint"/>
                        <mxPoint x="850" y="290" as="targetPoint"/>
                    </mxGeometry>
                </mxCell>
                <mxCell id="qHkTOjJ6QAgFXQLdBOn8-40" value="nosql" style="shape=cylinder3;whiteSpace=wrap;html=1;boundedLbl=1;backgroundOutline=1;size=15;" parent="1" vertex="1">
                    <mxGeometry x="837.5" y="235" width="60" height="80" as="geometry"/>
                </mxCell>
                <mxCell id="qHkTOjJ6QAgFXQLdBOn8-41" value="" style="endArrow=classic;startArrow=classic;html=1;exitX=1;exitY=0.5;exitDx=0;exitDy=0;" parent="1" source="qHkTOjJ6QAgFXQLdBOn8-42" target="qHkTOjJ6QAgFXQLdBOn8-40" edge="1">
                    <mxGeometry width="50" height="50" relative="1" as="geometry">
                        <mxPoint x="617.5" y="545" as="sourcePoint"/>
                        <mxPoint x="667.5" y="495" as="targetPoint"/>
                    </mxGeometry>
                </mxCell>
                <mxCell id="qHkTOjJ6QAgFXQLdBOn8-42" value="object meta node" style="rounded=1;whiteSpace=wrap;html=1;" parent="1" vertex="1">
                    <mxGeometry x="677.5" y="245" width="120" height="60" as="geometry"/>
                </mxCell>
                <mxCell id="qHkTOjJ6QAgFXQLdBOn8-43" value="nosql" style="shape=cylinder3;whiteSpace=wrap;html=1;boundedLbl=1;backgroundOutline=1;size=15;" parent="1" vertex="1">
                    <mxGeometry x="842.5" y="265" width="60" height="80" as="geometry"/>
                </mxCell>
                <mxCell id="qHkTOjJ6QAgFXQLdBOn8-44" value="" style="endArrow=classic;startArrow=classic;html=1;exitX=1;exitY=0.5;exitDx=0;exitDy=0;" parent="1" source="qHkTOjJ6QAgFXQLdBOn8-45" target="qHkTOjJ6QAgFXQLdBOn8-43" edge="1">
                    <mxGeometry width="50" height="50" relative="1" as="geometry">
                        <mxPoint x="622.5" y="575" as="sourcePoint"/>
                        <mxPoint x="672.5" y="525" as="targetPoint"/>
                    </mxGeometry>
                </mxCell>
                <mxCell id="qHkTOjJ6QAgFXQLdBOn8-45" value="object meta node" style="rounded=1;whiteSpace=wrap;html=1;" parent="1" vertex="1">
                    <mxGeometry x="682.5" y="275" width="120" height="60" as="geometry"/>
                </mxCell>
                <mxCell id="qHkTOjJ6QAgFXQLdBOn8-46" value="" style="endArrow=classic;startArrow=classic;html=1;" parent="1" source="12" target="qHkTOjJ6QAgFXQLdBOn8-37" edge="1">
                    <mxGeometry width="50" height="50" relative="1" as="geometry">
                        <mxPoint x="640" y="287.5675675675675" as="sourcePoint"/>
                        <mxPoint x="687.5" y="285" as="targetPoint"/>
                    </mxGeometry>
                </mxCell>
                <mxCell id="qHkTOjJ6QAgFXQLdBOn8-47" value="" style="endArrow=classic;startArrow=classic;html=1;" parent="1" source="12" target="qHkTOjJ6QAgFXQLdBOn8-45" edge="1">
                    <mxGeometry width="50" height="50" relative="1" as="geometry">
                        <mxPoint x="640" y="279.672131147541" as="sourcePoint"/>
                        <mxPoint x="687.5" y="268.7704918032787" as="targetPoint"/>
                    </mxGeometry>
                </mxCell>
                <mxCell id="LDG4DuuS8nTANSQ6Wwz4-37" value="POST, PUT, GET, DELETE" style="text;html=1;strokeColor=none;fillColor=none;align=center;verticalAlign=middle;whiteSpace=wrap;rounded=0;" vertex="1" parent="1">
                    <mxGeometry x="110" y="380" width="170" height="30" as="geometry"/>
                </mxCell>
            </root>
        </mxGraphModel>
    </diagram>
</mxfile>